@startuml

abstract class DV_TEMPORAL {
  + accuracy : DV_DURATION [0..1]
  + {abstract} add( a_diff : DV_DURATION [1] ) : DV_TEMPORAL [1]
  + {abstract} subtract( a_diff : DV_DURATION [1] ) : DV_TEMPORAL [1]
  + {abstract} diff( other : DV_TEMPORAL [1] ) : DV_DURATION [1]
}

abstract class DV_ABSOLUTE_QUANTITY  #whitesmoke;line:gray;line.dotted;text:gray {
  + accuracy : DV_AMOUNT [0..1]
  + {abstract} add( a_diff : DV_AMOUNT [1] ) : DV_ABSOLUTE_QUANTITY [1]
  + {abstract} subtract( a_diff : DV_AMOUNT [1] ) : DV_ABSOLUTE_QUANTITY [1]
  + {abstract} diff( other : DV_ABSOLUTE_QUANTITY [1] ) : DV_AMOUNT [1]
}

abstract class DV_QUANTIFIED  #whitesmoke;line:gray;line.dotted;text:gray {
  + magnitude_status : String [0..1]
  + accuracy : Any [0..1]
  + valid_magnitude_status() : Boolean [1]
  + {abstract} magnitude() : Ordered_Numeric [1]
  + accuracy_unknown() : Boolean [1]
  + {abstract} is_equal( other : DV_QUANTIFIED [1] ) : Boolean [1]
  + less_than( other : DV_QUANTIFIED [1] ) : Boolean [1]
}

abstract class DV_ORDERED  #whitesmoke;line:gray;line.dotted;text:gray {
  + normal_status : CODE_PHRASE [0..1]
  + normal_range : DV_INTERVAL [0..1]
  + other_reference_ranges : List<REFERENCE_RANGE<DV_ORDERED>> [*]
  + {abstract} is_strictly_comparable_to( other : DV_ORDERED [1] ) : Boolean [1]
  + is_simple() : Boolean [1]
  + is_normal() : Boolean [1]
  + {abstract} less_than( other : DV_ORDERED [1] ) : Boolean [1]
}

abstract class DATA_VALUE  #whitesmoke;line:gray;line.dotted;text:gray {
}

DATA_VALUE <|-- DV_ORDERED

abstract class Ordered  #whitesmoke;line:gray;line.dotted;text:gray {
  + {abstract} less_than( other : Ordered [1] ) : Boolean [1]
  + less_than_or_equal( other : Ordered [1] ) : Boolean [1]
  + greater_than( other : Ordered [1] ) : Boolean [1]
  + greater_than_or_equal( other : Ordered [1] ) : Boolean [1]
}

Ordered <|-- DV_ORDERED

DV_ORDERED <|-- DV_QUANTIFIED

DV_QUANTIFIED <|-- DV_ABSOLUTE_QUANTITY

DV_ABSOLUTE_QUANTITY <|-- DV_TEMPORAL


@enduml