@startuml

class BMM_INDEXED_CONTAINER_PROPERTY {
  + type : BMM_INDEXED_CONTAINER_TYPE [1]
  + display_name() : String [1]
}

class BMM_CONTAINER_PROPERTY #whitesmoke;line:gray;line.dotted;text:gray {
  + cardinality : Multiplicity_interval [0..1]
  + type : BMM_CONTAINER_TYPE [1]
  + display_name() : String [1]
}

abstract class BMM_PROPERTY #whitesmoke;line:gray;line.dotted;text:gray {
  + is_im_runtime : Boolean [0..1]
  + is_im_infrastructure : Boolean [0..1]
  + is_composition : Boolean [0..1]
  + existence() : Multiplicity_interval [1]
  + display_name() : String [1]
}

abstract class BMM_INSTANTIABLE #whitesmoke;line:gray;line.dotted;text:gray {
}

abstract class BMM_TYPED_FEATURE #whitesmoke;line:gray;line.dotted;text:gray {
  + is_nullable : Boolean [0..1]
}

abstract class BMM_TYPED #whitesmoke;line:gray;line.dotted;text:gray {
  + type : BMM_TYPE [1]
  + is_boolean() : Boolean [1]
}

BMM_TYPED <|-- BMM_TYPED_FEATURE

BMM_TYPED_FEATURE <|-- BMM_INSTANTIABLE

BMM_INSTANTIABLE <|-- BMM_PROPERTY

abstract class BMM_CLASS_FEATURE #whitesmoke;line:gray;line.dotted;text:gray {
  + scope : BMM_CLASS [1]
  + visibility : BMM_VISIBILITY [0..1]
  + feature_extensions : List<BMM_FEATURE_EXTENSION> [*]
  + group : BMM_FEATURE_GROUP [1]
}

abstract class BMM_CLASS_ENTITY #whitesmoke;line:gray;line.dotted;text:gray {
  + is_synthesised_generic : Boolean [0..1]
  + {abstract} signature() : BMM_SIGNATURE [1]
}

abstract class BMM_DECLARATION #whitesmoke;line:gray;line.dotted;text:gray {
  + name : String [1]
  + documentation : Hash<String,Any> [0..1]
  + scope : BMM_DECLARATION [1]
  + extensions : Hash<String,Any> [0..1]
  + is_root_scope() : Boolean [1]
}

BMM_DECLARATION <|-- BMM_CLASS_ENTITY

BMM_CLASS_ENTITY <|-- BMM_CLASS_FEATURE

BMM_CLASS_FEATURE <|-- BMM_PROPERTY

BMM_PROPERTY <|-- BMM_CONTAINER_PROPERTY

BMM_CONTAINER_PROPERTY <|-- BMM_INDEXED_CONTAINER_PROPERTY


@enduml