@startuml

class BMM_ASSERTION {
  + expression : EL_BOOLEAN_EXPRESSION [1]
  + tag : String [0..1]
}

abstract class BMM_SIMPLE_STATEMENT #whitesmoke;line:gray;line.dotted;text:gray {
}

abstract class BMM_STATEMENT #whitesmoke;line:gray;line.dotted;text:gray {
}

abstract class BMM_STATEMENT_ITEM #whitesmoke;line:gray;line.dotted;text:gray {
}

BMM_STATEMENT_ITEM <|-- BMM_STATEMENT

BMM_STATEMENT <|-- BMM_SIMPLE_STATEMENT

BMM_SIMPLE_STATEMENT <|-- BMM_ASSERTION


@enduml