@startuml

class BMM_PACKAGE_CONTAINER {
  + packages : Hash<String,BMM_PACKAGE> [0..1]
  + package_at_path( a_path : String [1] ) : BMM_PACKAGE [1]
  + do_recursive_packages( action : PROCEDURE [1] ) :  [1]
  + has_package_path( a_path : String [1] ) : Boolean [1]
}

abstract class BMM_MODEL_ELEMENT #whitesmoke;line:gray;line.dotted;text:gray {
  + documentation : String [0..1]
}

class BMM_DEFINITIONS #whitesmoke;line:gray;line.dotted;text:gray {
}

BMM_DEFINITIONS <|-- BMM_MODEL_ELEMENT

BMM_MODEL_ELEMENT <|-- BMM_PACKAGE_CONTAINER


@enduml