@startuml

abstract class BMM_MODEL_TYPE {
  + value_constraint : BMM_VALUE_SET_SPEC [0..1]
  + base_class : BMM_CLASS [1]
  + type_base_name() : String [1]
  + is_primitive() : Boolean [1]
}

abstract class BMM_EFFECTIVE_TYPE #whitesmoke;line:gray;line.dotted;text:gray {
  + effective_type() : BMM_EFFECTIVE_TYPE [1]
  + {abstract} type_base_name() : String [1]
}

abstract class BMM_UNITARY_TYPE #whitesmoke;line:gray;line.dotted;text:gray {
  + unitary_type() : BMM_UNITARY_TYPE [1]
}

abstract class BMM_TYPE #whitesmoke;line:gray;line.dotted;text:gray {
  + {abstract} type_name() : String [1]
  + type_signature() : String [1]
  + {abstract} is_abstract() : Boolean [1]
  + {abstract} is_primitive() : Boolean [1]
  + {abstract} unitary_type() : BMM_UNITARY_TYPE [1]
  + {abstract} effective_type() : BMM_EFFECTIVE_TYPE [1]
  + {abstract} flattened_type_list() : List<String> [1..*]
}

BMM_TYPE <|-- BMM_UNITARY_TYPE

BMM_UNITARY_TYPE <|-- BMM_EFFECTIVE_TYPE

BMM_EFFECTIVE_TYPE <|-- BMM_MODEL_TYPE


@enduml