@startuml

class OPERATIONAL_TEMPLATE {
  + component_terminologies : Hash<String,ARCHETYPE_TERMINOLOGY> [0..1]
  + terminology_extracts : Hash<String,ARCHETYPE_TERMINOLOGY> [0..1]
  + component_terminology( an_id : String [1] ) : ARCHETYPE_TERMINOLOGY [1]
}

class AUTHORED_ARCHETYPE #whitesmoke;line:gray;line.dotted;text:gray {
  + adl_version : String [0..1]
  + build_uid : UUID [1]
  + rm_release : String [1]
  + is_generated : Boolean [1]
  + other_meta_data : Hash<String,String> [1]
}

abstract class ARCHETYPE #whitesmoke;line:gray;line.dotted;text:gray {
  + parent_archetype_id : String [0..1]
  + archetype_id : ARCHETYPE_HRID [1]
  + is_differential : Boolean [1]
  + definition : C_COMPLEX_OBJECT [1]
  + terminology : ARCHETYPE_TERMINOLOGY [1]
  + rules : List<STATEMENT_SET> [*]
  + rm_overlay : RM_OVERLAY [0..1]
  + concept_code() : String [1]
  + physical_paths() : List<String> [1..*]
  + logical_paths( lang : String [1] ) : List<String> [1..*]
  + specialisation_depth() : Integer [1]
  + is_specialised() : Boolean [1]
}

ARCHETYPE <|-- AUTHORED_ARCHETYPE

abstract class AUTHORED_RESOURCE #whitesmoke;line:gray;line.dotted;text:gray {
  + uid : UUID [0..1]
  + original_language : Terminology_code [1]
  + description : RESOURCE_DESCRIPTION [0..1]
  + is_controlled : Boolean [0..1]
  + annotations : RESOURCE_ANNOTATIONS [0..1]
  + translations : Hash<String,TRANSLATION_DETAILS> [0..1]
  + languages_available() : List<String> [1..*]
}

AUTHORED_RESOURCE <|-- AUTHORED_ARCHETYPE

AUTHORED_ARCHETYPE <|-- OPERATIONAL_TEMPLATE


@enduml