@startuml

class DV_PROPORTION {
  + numerator : Real [1]
  + denominator : Real [1]
  + type : Integer [1]
  + precision : Integer [0..1]
  + normal_range : DV_INTERVAL<DV_PROPORTION> [0..1]
  + other_reference_ranges : List<REFERENCE_RANGE<DV_PROPORTION>> [*]
  + magnitude() : Real [1]
  + is_integral() : Boolean [1]
  + add( other : DV_PROPORTION [1] ) : DV_PROPORTION [1]
  + subtract( other : DV_PROPORTION [1] ) : DV_PROPORTION [1]
  + is_equal( other : DV_PROPORTION [1] ) : Boolean [1]
  + multiply( factor : Real [1] ) : DV_PROPORTION [1]
  + less_than( other : DV_PROPORTION [1] ) : Boolean [1]
  + is_strictly_comparable_to( other : DV_ORDERED [1] ) : Boolean [1]
}

PROPORTION_KIND <|-- DV_PROPORTION

abstract class DV_AMOUNT  #whitesmoke;line:gray;line.dotted;text:gray {
  + accuracy_is_percent : Boolean [0..1]
  + accuracy : Real [0..1]
  + valid_percentage( number : Ordered_Numeric [1] ) : Boolean [1]
  + add( other : DV_AMOUNT [1] ) : DV_AMOUNT [1]
  + subtract( other : DV_AMOUNT [1] ) : DV_AMOUNT [1]
  + {abstract} is_equal( other : DV_AMOUNT [1] ) : Boolean [1]
  + multiply( factor : Real [1] ) : DV_AMOUNT [1]
  + negative() : DV_AMOUNT [1]
  + less_than( other : DV_AMOUNT [1] ) : Boolean [1]
}

abstract class DV_QUANTIFIED  #whitesmoke;line:gray;line.dotted;text:gray {
  + magnitude_status : String [0..1]
  + accuracy : Any [0..1]
  + valid_magnitude_status() : Boolean [1]
  + {abstract} magnitude() : Ordered_Numeric [1]
  + accuracy_unknown() : Boolean [1]
  + {abstract} is_equal( other : DV_QUANTIFIED [1] ) : Boolean [1]
  + less_than( other : DV_QUANTIFIED [1] ) : Boolean [1]
}

abstract class DV_ORDERED  #whitesmoke;line:gray;line.dotted;text:gray {
  + normal_status : CODE_PHRASE [0..1]
  + normal_range : DV_INTERVAL [0..1]
  + other_reference_ranges : List<REFERENCE_RANGE<DV_ORDERED>> [*]
  + {abstract} is_strictly_comparable_to( other : DV_ORDERED [1] ) : Boolean [1]
  + is_simple() : Boolean [1]
  + is_normal() : Boolean [1]
  + {abstract} less_than( other : DV_ORDERED [1] ) : Boolean [1]
}

abstract class DATA_VALUE  #whitesmoke;line:gray;line.dotted;text:gray {
}

DATA_VALUE <|-- DV_ORDERED

abstract class Ordered  #whitesmoke;line:gray;line.dotted;text:gray {
  + {abstract} less_than( other : Ordered [1] ) : Boolean [1]
  + less_than_or_equal( other : Ordered [1] ) : Boolean [1]
  + greater_than( other : Ordered [1] ) : Boolean [1]
  + greater_than_or_equal( other : Ordered [1] ) : Boolean [1]
}

Ordered <|-- DV_ORDERED

DV_ORDERED <|-- DV_QUANTIFIED

DV_QUANTIFIED <|-- DV_AMOUNT

DV_AMOUNT <|-- DV_PROPORTION


@enduml