@startuml

class DV_DATE_TIME {
  + value : String [1]
  + magnitude() : Double [1]
  + add( a_diff : DV_DURATION [1] ) : DV_DATE_TIME [1]
  + subtract( a_diff : DV_DURATION [1] ) : DV_DATE_TIME [1]
  + diff( other : DV_DATE_TIME [1] ) : DV_DURATION [1]
  + less_than( other : DV_DATE_TIME [1] ) : Boolean [1]
  + is_strictly_comparable_to( other : DV_DATE_TIME [1] ) : Boolean [1]
}

abstract class DV_TEMPORAL  #whitesmoke;line:gray;line.dotted;text:gray {
  + accuracy : DV_DURATION [0..1]
  + {abstract} add( a_diff : DV_DURATION [1] ) : DV_TEMPORAL [1]
  + {abstract} subtract( a_diff : DV_DURATION [1] ) : DV_TEMPORAL [1]
  + {abstract} diff( other : DV_TEMPORAL [1] ) : DV_DURATION [1]
}

abstract class DV_ABSOLUTE_QUANTITY  #whitesmoke;line:gray;line.dotted;text:gray {
  + accuracy : DV_AMOUNT [0..1]
  + {abstract} add( a_diff : DV_AMOUNT [1] ) : DV_ABSOLUTE_QUANTITY [1]
  + {abstract} subtract( a_diff : DV_AMOUNT [1] ) : DV_ABSOLUTE_QUANTITY [1]
  + {abstract} diff( other : DV_ABSOLUTE_QUANTITY [1] ) : DV_AMOUNT [1]
}

abstract class DV_QUANTIFIED  #whitesmoke;line:gray;line.dotted;text:gray {
  + magnitude_status : String [0..1]
  + accuracy : Any [0..1]
  + valid_magnitude_status() : Boolean [1]
  + {abstract} magnitude() : Ordered_Numeric [1]
  + accuracy_unknown() : Boolean [1]
  + {abstract} is_equal( other : DV_QUANTIFIED [1] ) : Boolean [1]
  + less_than( other : DV_QUANTIFIED [1] ) : Boolean [1]
}

abstract class DV_ORDERED  #whitesmoke;line:gray;line.dotted;text:gray {
  + normal_status : CODE_PHRASE [0..1]
  + normal_range : DV_INTERVAL [0..1]
  + other_reference_ranges : List<REFERENCE_RANGE<DV_ORDERED>> [*]
  + {abstract} is_strictly_comparable_to( other : DV_ORDERED [1] ) : Boolean [1]
  + is_simple() : Boolean [1]
  + is_normal() : Boolean [1]
  + {abstract} less_than( other : DV_ORDERED [1] ) : Boolean [1]
}

abstract class DATA_VALUE  #whitesmoke;line:gray;line.dotted;text:gray {
}

DATA_VALUE <|-- DV_ORDERED

abstract class Ordered  #whitesmoke;line:gray;line.dotted;text:gray {
  + {abstract} infix <( other : Ordered [1] ) : Boolean [1]
}

Ordered <|-- DV_ORDERED

DV_ORDERED <|-- DV_QUANTIFIED

DV_QUANTIFIED <|-- DV_ABSOLUTE_QUANTITY

DV_ABSOLUTE_QUANTITY <|-- DV_TEMPORAL

DV_TEMPORAL <|-- DV_DATE_TIME

class Iso8601_date_time  #whitesmoke;line:gray;line.dotted;text:gray {
  + month_unknown() : Boolean [1]
  + day_unknown() : Boolean [1]
  + minute_unknown() : Boolean [1]
  + second_unknown() : Boolean [1]
  + is_decimal_sign_comma() : Boolean [1]
  + valid_iso8601_date_time( s : String [1] ) : Boolean [1]
  + is_partial() : Boolean [1]
  + is_extended() : Boolean [1]
  + as_string() : String [1]
  + has_fractional_second() : Boolean [1]
  + as_date_time() : Date_time [1]
}

abstract class Iso8601_type  #whitesmoke;line:gray;line.dotted;text:gray {
  + value : String [1]
  + {abstract} is_partial() : Boolean [1]
  + {abstract} is_extended() : Boolean [1]
}

abstract class Ordered  #whitesmoke;line:gray;line.dotted;text:gray {
  + {abstract} infix <( other : Ordered [1] ) : Boolean [1]
}

Ordered <|-- Iso8601_type

Iso8601_type <|-- Iso8601_date_time

abstract class IDate_time  #whitesmoke;line:gray;line.dotted;text:gray {
  + year() : Integer [1]
  + month() : Integer [1]
  + day() : Integer [1]
  + hour() : Integer [1]
  + minute() : Integer [1]
  + second() : Integer [1]
  + fractional_second() : Real [1]
  + timezone() : ITimezone [1]
}

abstract class Temporal  #whitesmoke;line:gray;line.dotted;text:gray {
}

abstract class Ordered  #whitesmoke;line:gray;line.dotted;text:gray {
  + {abstract} infix <( other : Ordered [1] ) : Boolean [1]
}

Ordered <|-- Temporal

class Time_Definitions  #whitesmoke;line:gray;line.dotted;text:gray {
  + valid_year( y : Integer [1] ) : Boolean [1]
  + valid_month( m : Integer [1] ) : Boolean [1]
  + valid_day( y : Integer [1], m : Integer [1], d : Integer [1] ) : Boolean [1]
  + valid_hour( h : Integer [1], m : Integer [1], s : Integer [1] ) : Boolean [1]
  + valid_minute( m : Integer [1] ) : Boolean [1]
  + valid_second( s : Integer [1] ) : Boolean [1]
  + valid_fractional_second( fs : Double [1] ) : Boolean [1]
}

Time_Definitions <|-- Temporal

Temporal <|-- IDate_time

IDate_time <|-- Iso8601_date_time

Iso8601_date_time <|-- DV_DATE_TIME


@enduml